<svg width="26" height="24" viewBox="0 0 26 24" fill="none" xmlns="http://www.w3.org/2000/svg">
<path fill-rule="evenodd" clip-rule="evenodd" d="M11.2409 2.07663C11.2085 2.06585 11.1732 2.08025 11.1576 2.11055C11.1282 2.16759 11.0936 2.22179 11.0542 2.27243L6.21777 8.49074C6.02142 8.74319 5.71951 8.89085 5.39969 8.89085H2.636C2.44521 8.89085 2.29054 9.04552 2.29054 9.23631V14.7637C2.29054 14.9545 2.44521 15.1092 2.636 15.1092H5.39969C5.71951 15.1092 6.02142 15.2568 6.21777 15.5093L11.0542 21.7276C11.0936 21.7782 11.1282 21.8324 11.1576 21.8895C11.1732 21.9197 11.2085 21.9341 11.2409 21.9234C11.2732 21.9126 11.2928 21.8799 11.2871 21.8463C11.2774 21.789 11.2725 21.731 11.2725 21.6729V2.32708C11.2725 2.26899 11.2774 2.211 11.2871 2.15373C11.2928 2.12014 11.2732 2.0874 11.2409 2.07663ZM9.36847 1.06366C9.8759 0.191913 10.9298 -0.211955 11.8963 0.110226C12.8663 0.433537 13.4679 1.39455 13.3453 2.40023V21.5998C13.4679 22.6055 12.8663 23.5665 11.8963 23.8898C10.9298 24.212 9.8759 23.8081 9.36847 22.9363L4.89282 17.1819H2.636C1.30045 17.1819 0.217773 16.0992 0.217773 14.7637V9.23631C0.217773 7.90076 1.30045 6.81808 2.636 6.81808H4.89282L9.36847 1.06366ZM18.4853 8.50335C18.8901 8.09862 19.5463 8.09862 19.951 8.50335L21.9818 10.5342L24.0127 8.50335C24.4174 8.09862 25.0736 8.09862 25.4784 8.50335C25.8831 8.90808 25.8831 9.56429 25.4784 9.96902L23.4475 11.9999L25.4784 14.0307C25.8831 14.4355 25.8831 15.0917 25.4784 15.4964C25.0736 15.9011 24.4174 15.9011 24.0127 15.4964L21.9818 13.4655L19.951 15.4964C19.5463 15.9011 18.8901 15.9011 18.4853 15.4964C18.0806 15.0917 18.0806 14.4355 18.4853 14.0307L20.5162 11.9999L18.4853 9.96902C18.0806 9.56429 18.0806 8.90808 18.4853 8.50335Z" fill="white"/>
</svg>
