<svg width="22" height="22" viewBox="0 0 22 22" fill="none" xmlns="http://www.w3.org/2000/svg">
<path fill-rule="evenodd" clip-rule="evenodd" d="M10.9856 2.71419C6.81672 2.70173 3.28786 5.78889 2.74604 9.92245C2.68452 10.3918 2.25418 10.7224 1.78484 10.6609C1.31551 10.5993 0.984909 10.169 1.04643 9.69967C1.70035 4.71089 5.95932 0.985001 10.9907 1.00005C16.0222 1.01509 20.2588 4.76638 20.8829 9.75898C21.5069 14.7516 18.3241 19.4303 13.4512 20.6834C9.33312 21.7424 5.09212 20.0761 2.75331 16.7132V20.096C2.75331 20.5693 2.36959 20.9531 1.89624 20.9531C1.42289 20.9531 1.03916 20.5693 1.03916 20.096V14.3821C1.03916 13.9088 1.42289 13.5251 1.89624 13.5251H2.44765C2.46082 13.5248 2.47397 13.5248 2.48709 13.5251H7.61008C8.08343 13.5251 8.46716 13.9088 8.46716 14.3821C8.46716 14.8555 8.08343 15.2392 7.61008 15.2392H3.84195C5.6937 18.3538 9.41594 19.9511 13.0243 19.0232C17.0618 17.985 19.699 14.1083 19.1819 9.97159C18.6649 5.83487 15.1545 2.72666 10.9856 2.71419Z" fill="black" stroke="black" stroke-width="0.5" stroke-linecap="round" stroke-linejoin="round"/>
</svg>
