<svg width="23" height="24" viewBox="0 0 23 24" fill="none" xmlns="http://www.w3.org/2000/svg">
<path d="M11.5 1C5.43263 1 0.5 5.93263 0.5 12C0.5 18.0674 5.43263 23 11.5 23C17.5674 23 22.5 18.0674 22.5 12C22.5 5.93263 17.5674 1 11.5 1ZM11.5 22.0737C5.94211 22.0737 1.42632 17.5579 1.42632 12C1.42632 6.44211 5.94211 1.92632 11.5 1.92632C17.0579 1.92632 21.5737 6.44211 21.5737 12C21.5737 17.5579 17.0579 22.0737 11.5 22.0737Z" fill="black" stroke="black"/>
<path d="M16.0853 11.2582L9.69374 7.27503C9.11479 6.9045 8.35059 7.32135 8.35059 8.01608V16.0056C8.35059 16.7003 9.11479 17.1171 9.69374 16.7466L16.0853 12.7635C16.6411 12.3929 16.6411 11.6056 16.0853 11.2582Z" fill="black"/>
</svg>
