<svg width="19" height="20" viewBox="0 0 19 20" fill="none" xmlns="http://www.w3.org/2000/svg">
<path fill-rule="evenodd" clip-rule="evenodd" d="M2.03008 0.204344C2.30254 -0.0681147 2.74429 -0.0681147 3.01675 0.204344L3.94698 1.13458C4.21944 1.40704 4.21944 1.84878 3.94698 2.12124C3.67452 2.3937 3.23278 2.3937 2.96032 2.12124L2.03008 1.191C1.75763 0.918546 1.75763 0.476803 2.03008 0.204344ZM13.2493 0.204344C13.5218 0.476803 13.5218 0.918546 13.2493 1.191L12.3191 2.12124C12.0466 2.3937 11.6049 2.3937 11.3324 2.12124C11.06 1.84878 11.06 1.40704 11.3324 1.13458L12.2626 0.204344C12.5351 -0.0681147 12.9768 -0.0681147 13.2493 0.204344ZM7.63969 2.32558C7.25438 2.32558 6.94202 2.63794 6.94202 3.02326V10.9302C6.94202 11.2124 6.77204 11.4668 6.51134 11.5748C6.25063 11.6828 5.95055 11.6231 5.75102 11.4236L4.38384 10.0564C4.04665 9.7196 3.52357 9.65537 3.11491 9.90057C2.79087 10.0948 2.68014 10.5119 2.8654 10.8412C4.62029 13.9606 5.62362 15.7084 5.89838 16.1304C5.89827 16.1302 5.89848 16.1305 5.89838 16.1304L6.07909 16.407C6.07931 16.4073 6.07953 16.4076 6.07974 16.408C6.98314 17.779 8.51505 18.6044 10.157 18.6047C10.1575 18.6047 10.1581 18.6047 10.1586 18.6047H11.8257C14.5229 18.6047 16.7094 16.4181 16.7094 13.7209V9.53488C16.7094 9.14957 16.3971 8.83721 16.0118 8.83721C15.6282 8.83721 15.3169 9.14679 15.3141 9.52973V10C15.3141 10.3853 15.0018 10.6977 14.6164 10.6977C14.2311 10.6977 13.9188 10.3853 13.9188 10V9.54004C13.9188 9.53832 13.9187 9.5366 13.9187 9.53488C13.9187 9.53191 13.9188 9.52893 13.9188 9.52596V8.60465C13.9188 8.21934 13.6064 7.90698 13.2211 7.90698C12.8358 7.90698 12.5234 8.21934 12.5234 8.60465V10C12.5234 10.3853 12.2111 10.6977 11.8257 10.6977C11.4404 10.6977 11.1281 10.3853 11.1281 10V7.67442C11.1281 7.2891 10.8157 6.97674 10.4304 6.97674C10.0451 6.97674 9.73272 7.2891 9.73272 7.67442V10C9.73272 10.3853 9.42036 10.6977 9.03504 10.6977C8.64973 10.6977 8.33737 10.3853 8.33737 10V3.02326C8.33737 2.63794 8.02501 2.32558 7.63969 2.32558ZM9.73272 5.70049V3.02326C9.73272 1.86731 8.79564 0.930233 7.63969 0.930233C6.48375 0.930233 5.54667 1.86731 5.54667 3.02326V9.24591L5.37021 9.06946C4.58028 8.28043 3.35462 8.12962 2.39721 8.70395M9.73272 5.70049C9.95093 5.62336 10.1858 5.5814 10.4304 5.5814C11.245 5.5814 11.951 6.0468 12.2968 6.72624C12.5756 6.58883 12.8893 6.51163 13.2211 6.51163C14.0357 6.51163 14.7417 6.97703 15.0875 7.65646C15.3663 7.51905 15.68 7.44186 16.0118 7.44186C17.1677 7.44186 18.1048 8.37894 18.1048 9.53488V13.7209C18.1048 17.1888 15.2936 20 11.8257 20H10.1589C10.1588 20 10.1589 20 10.1589 20H9.96526C9.93244 20 9.90016 19.9977 9.86856 19.9934C7.86704 19.9013 6.02214 18.8575 4.91375 17.1744L4.91235 17.1723L4.73002 16.8932L4.7295 16.8924C4.42334 16.4224 3.38955 14.6187 1.6493 11.5253C1.09358 10.5376 1.42526 9.28683 2.39721 8.70395M13.6862 5.11628H12.756C12.3707 5.11628 12.0583 4.80392 12.0583 4.4186C12.0583 4.03329 12.3707 3.72093 12.756 3.72093H13.6862C14.0715 3.72093 14.3839 4.03329 14.3839 4.4186C14.3839 4.80392 14.0715 5.11628 13.6862 5.11628ZM0.895508 5.34884C0.895508 4.96352 1.20787 4.65116 1.59318 4.65116H2.52341C2.90873 4.65116 3.22109 4.96352 3.22109 5.34884C3.22109 5.73415 2.90873 6.04651 2.52341 6.04651H1.59318C1.20787 6.04651 0.895508 5.73415 0.895508 5.34884Z" fill="black"/>
</svg>
