<svg width="26" height="24" viewBox="0 0 26 24" fill="none" xmlns="http://www.w3.org/2000/svg">
<path fill-rule="evenodd" clip-rule="evenodd" d="M11.2409 2.07663C11.2085 2.06585 11.1732 2.08025 11.1576 2.11055C11.1282 2.16759 11.0936 2.22179 11.0542 2.27243L6.21777 8.49074C6.02142 8.74319 5.71951 8.89085 5.39969 8.89085H2.636C2.44521 8.89085 2.29054 9.04552 2.29054 9.23631V14.7637C2.29054 14.9545 2.44521 15.1092 2.636 15.1092H5.39969C5.71951 15.1092 6.02142 15.2568 6.21777 15.5093L11.0542 21.7276C11.0936 21.7782 11.1282 21.8324 11.1576 21.8895C11.1732 21.9197 11.2085 21.9341 11.2409 21.9234C11.2732 21.9126 11.2928 21.8799 11.2871 21.8463C11.2774 21.789 11.2725 21.731 11.2725 21.6729V2.32708C11.2725 2.26899 11.2774 2.211 11.2871 2.15373C11.2928 2.12014 11.2732 2.0874 11.2409 2.07663ZM9.36847 1.06366C9.8759 0.191913 10.9298 -0.211955 11.8963 0.110226C12.8663 0.433537 13.4679 1.39455 13.3453 2.40023V21.5998C13.4679 22.6055 12.8663 23.5665 11.8963 23.8898C10.9298 24.212 9.8759 23.8081 9.36847 22.9363L4.89282 17.1819H2.636C1.30045 17.1819 0.217773 16.0992 0.217773 14.7637V9.23631C0.217773 7.90076 1.30045 6.81808 2.636 6.81808H4.89282L9.36847 1.06366ZM18.4892 6.36382C18.894 5.95909 19.5502 5.95909 19.9549 6.36382C21.8588 8.26773 21.8588 11.7323 19.9549 13.6362C19.5502 14.0409 18.894 14.0409 18.4892 13.6362C18.0845 13.2314 18.0845 12.5752 18.4892 12.1705C19.7387 10.921 19.7387 9.07904 18.4892 7.82949C18.0845 7.42476 18.0845 6.76855 18.4892 6.36382ZM22.5861 2.91935C22.9908 2.51462 23.647 2.51462 24.0518 2.91935C25.9557 4.82326 25.9557 15.1767 24.0518 17.0807C23.647 17.4854 22.9908 17.4854 22.5861 17.0807C22.1813 16.6759 22.1813 16.0197 22.5861 15.615C23.9406 14.2605 23.9406 5.73947 22.5861 4.38502C22.1813 3.98029 22.1813 3.32408 22.5861 2.91935Z" fill="white"/>
</svg>
